<?xml version="1.0" encoding="UTF-8" standalone="no"?>
<!DOCTYPE svg PUBLIC "-//W3C//DTD SVG 1.1//EN"
 "http://www.w3.org/Graphics/SVG/1.1/DTD/svg11.dtd">
<!-- Generated by graphviz version 2.43.0 (0)
 -->
<!-- Title: sourcetree Pages: 1 -->
<svg width="1451pt" height="260pt"
 viewBox="0.00 0.00 1451.00 260.00" xmlns="http://www.w3.org/2000/svg" xmlns:xlink="http://www.w3.org/1999/xlink">
<g id="graph0" class="graph" transform="scale(1 1) rotate(0) translate(4 256)">
<title>sourcetree</title>
<polygon fill="white" stroke="transparent" points="-4,4 -4,-256 1447,-256 1447,4 -4,4"/>
<!-- Foundation&#45;startup -->
<g id="node1" class="node">
<title>Foundation&#45;startup</title>
<polygon fill="yellow" stroke="black" points="1054.5,-252 900.5,-252 900.5,-216 1054.5,-216 1054.5,-252"/>
<text text-anchor="middle" x="977.5" y="-230.3" font-family="Times,serif" font-size="14.00">Foundation&#45;startup</text>
</g>
<!-- Foundation -->
<g id="node3" class="node">
<title>Foundation</title>
<g id="a_node3"><a xlink:href="https://github.com/MulleFoundation/Foundation" xlink:title="Foundation">
<polygon fill="lightgrey" stroke="black" points="908,-180 811,-180 811,-144 908,-144 908,-180"/>
<text text-anchor="middle" x="859.5" y="-158.3" font-family="Times,serif" font-size="14.00">Foundation</text>
</a>
</g>
</g>
<!-- Foundation&#45;startup&#45;&gt;Foundation -->
<g id="edge7" class="edge">
<title>Foundation&#45;startup&#45;&gt;Foundation</title>
<path fill="none" stroke="black" d="M948.63,-215.88C933.21,-206.72 914.02,-195.34 897.4,-185.48"/>
<polygon fill="black" stroke="black" points="898.86,-182.28 888.48,-180.19 895.29,-188.3 898.86,-182.28"/>
</g>
<!-- mulle&#45;atexit -->
<g id="node10" class="node">
<title>mulle&#45;atexit</title>
<g id="a_node10"><a xlink:href="https://github.com/mulle-core/mulle-atexit" xlink:title="mulle&#45;atexit">
<polygon fill="lightgrey" stroke="black" points="1028.5,-180 926.5,-180 926.5,-144 1028.5,-144 1028.5,-180"/>
<text text-anchor="middle" x="977.5" y="-158.3" font-family="Times,serif" font-size="14.00">mulle&#45;atexit</text>
</a>
</g>
</g>
<!-- Foundation&#45;startup&#45;&gt;mulle&#45;atexit -->
<g id="edge8" class="edge">
<title>Foundation&#45;startup&#45;&gt;mulle&#45;atexit</title>
<path fill="none" stroke="black" d="M977.5,-215.7C977.5,-207.98 977.5,-198.71 977.5,-190.11"/>
<polygon fill="black" stroke="black" points="981,-190.1 977.5,-180.1 974,-190.1 981,-190.1"/>
</g>
<!-- mulle&#45;atinit -->
<g id="node11" class="node">
<title>mulle&#45;atinit</title>
<g id="a_node11"><a xlink:href="https://github.com/mulle-core/mulle-atinit" xlink:title="mulle&#45;atinit">
<polygon fill="lightgrey" stroke="black" points="1146,-180 1047,-180 1047,-144 1146,-144 1146,-180"/>
<text text-anchor="middle" x="1096.5" y="-158.3" font-family="Times,serif" font-size="14.00">mulle&#45;atinit</text>
</a>
</g>
</g>
<!-- Foundation&#45;startup&#45;&gt;mulle&#45;atinit -->
<g id="edge9" class="edge">
<title>Foundation&#45;startup&#45;&gt;mulle&#45;atinit</title>
<path fill="none" stroke="black" d="M1006.61,-215.88C1022.17,-206.72 1041.52,-195.34 1058.28,-185.48"/>
<polygon fill="black" stroke="black" points="1060.43,-188.28 1067.28,-180.19 1056.88,-182.24 1060.43,-188.28"/>
</g>
<!-- expat -->
<g id="node2" class="node">
<title>expat</title>
<g id="a_node2"><a xlink:href="https://unknown.com/" xlink:title="expat">
<polygon fill="lightgrey" stroke="black" points="771.5,-36 715.5,-36 715.5,0 771.5,0 771.5,-36"/>
<text text-anchor="middle" x="743.5" y="-14.3" font-family="Times,serif" font-size="14.00">expat</text>
</a>
</g>
</g>
<!-- MulleFoundation -->
<g id="node4" class="node">
<title>MulleFoundation</title>
<g id="a_node4"><a xlink:href="https://github.com/MulleFoundation/MulleFoundation" xlink:title="MulleFoundation">
<polygon fill="lightgrey" stroke="black" points="446,-108 309,-108 309,-72 446,-72 446,-108"/>
<text text-anchor="middle" x="377.5" y="-86.3" font-family="Times,serif" font-size="14.00">MulleFoundation</text>
</a>
</g>
</g>
<!-- Foundation&#45;&gt;MulleFoundation -->
<g id="edge1" class="edge">
<title>Foundation&#45;&gt;MulleFoundation</title>
<path fill="none" stroke="black" d="M810.94,-155.6C735.81,-147.01 586.97,-129.03 461.5,-108 459.78,-107.71 458.05,-107.42 456.3,-107.11"/>
<polygon fill="black" stroke="black" points="456.65,-103.62 446.19,-105.29 455.42,-110.51 456.65,-103.62"/>
</g>
<!-- mulle&#45;objc&#45;compat -->
<g id="node5" class="node">
<title>mulle&#45;objc&#45;compat</title>
<g id="a_node5"><a xlink:href="https://github.com/mulle-objc/mulle-objc-compat" xlink:title="mulle&#45;objc&#45;compat">
<polygon fill="lightgrey" stroke="black" points="618,-108 471,-108 471,-72 618,-72 618,-108"/>
<text text-anchor="middle" x="544.5" y="-86.3" font-family="Times,serif" font-size="14.00">mulle&#45;objc&#45;compat</text>
</a>
</g>
</g>
<!-- Foundation&#45;&gt;mulle&#45;objc&#45;compat -->
<g id="edge2" class="edge">
<title>Foundation&#45;&gt;mulle&#45;objc&#45;compat</title>
<path fill="none" stroke="black" d="M810.97,-150.22C762.36,-139.41 686.57,-122.57 628.23,-109.61"/>
<polygon fill="black" stroke="black" points="628.81,-106.15 618.29,-107.4 627.29,-112.98 628.81,-106.15"/>
</g>
<!-- MulleObjCExpatFoundation -->
<g id="node6" class="node">
<title>MulleObjCExpatFoundation</title>
<g id="a_node6"><a xlink:href="https://github.com/MulleFoundation/MulleObjCExpatFoundation" xlink:title="MulleObjCExpatFoundation">
<polygon fill="lightgrey" stroke="black" points="851,-108 636,-108 636,-72 851,-72 851,-108"/>
<text text-anchor="middle" x="743.5" y="-86.3" font-family="Times,serif" font-size="14.00">MulleObjCExpatFoundation</text>
</a>
</g>
</g>
<!-- Foundation&#45;&gt;MulleObjCExpatFoundation -->
<g id="edge3" class="edge">
<title>Foundation&#45;&gt;MulleObjCExpatFoundation</title>
<path fill="none" stroke="black" d="M831.12,-143.88C815.96,-134.72 797.09,-123.34 780.76,-113.48"/>
<polygon fill="black" stroke="black" points="782.36,-110.36 771.99,-108.19 778.74,-116.35 782.36,-110.36"/>
</g>
<!-- MulleObjCHTTPFoundation -->
<g id="node7" class="node">
<title>MulleObjCHTTPFoundation</title>
<g id="a_node7"><a xlink:href="https://github.com/MulleWeb/MulleObjCHTTPFoundation" xlink:title="MulleObjCHTTPFoundation">
<polygon fill="lightgrey" stroke="black" points="1082,-108 869,-108 869,-72 1082,-72 1082,-108"/>
<text text-anchor="middle" x="975.5" y="-86.3" font-family="Times,serif" font-size="14.00">MulleObjCHTTPFoundation</text>
</a>
</g>
</g>
<!-- Foundation&#45;&gt;MulleObjCHTTPFoundation -->
<g id="edge4" class="edge">
<title>Foundation&#45;&gt;MulleObjCHTTPFoundation</title>
<path fill="none" stroke="black" d="M887.88,-143.88C903.04,-134.72 921.91,-123.34 938.24,-113.48"/>
<polygon fill="black" stroke="black" points="940.26,-116.35 947.01,-108.19 936.64,-110.36 940.26,-116.35"/>
</g>
<!-- MulleObjCInetOSFoundation -->
<g id="node8" class="node">
<title>MulleObjCInetOSFoundation</title>
<g id="a_node8"><a xlink:href="https://github.com/MulleFoundation/MulleObjCInetOSFoundation" xlink:title="MulleObjCInetOSFoundation">
<polygon fill="lightgrey" stroke="black" points="1321.5,-108 1099.5,-108 1099.5,-72 1321.5,-72 1321.5,-108"/>
<text text-anchor="middle" x="1210.5" y="-86.3" font-family="Times,serif" font-size="14.00">MulleObjCInetOSFoundation</text>
</a>
</g>
</g>
<!-- Foundation&#45;&gt;MulleObjCInetOSFoundation -->
<g id="edge5" class="edge">
<title>Foundation&#45;&gt;MulleObjCInetOSFoundation</title>
<path fill="none" stroke="black" d="M908.13,-146.34C911.29,-145.51 914.44,-144.72 917.5,-144 973.98,-130.65 1037.27,-118.82 1090.54,-109.74"/>
<polygon fill="black" stroke="black" points="1091.43,-113.14 1100.7,-108.02 1090.26,-106.24 1091.43,-113.14"/>
</g>
<!-- objc&#45;compat -->
<g id="node9" class="node">
<title>objc&#45;compat</title>
<g id="a_node9"><a xlink:href="https://github.com/MulleFoundation/objc-compat" xlink:title="objc&#45;compat">
<polygon fill="lightgrey" stroke="black" points="1443,-108 1340,-108 1340,-72 1443,-72 1443,-108"/>
<text text-anchor="middle" x="1391.5" y="-86.3" font-family="Times,serif" font-size="14.00">objc&#45;compat</text>
</a>
</g>
</g>
<!-- Foundation&#45;&gt;objc&#45;compat -->
<g id="edge6" class="edge">
<title>Foundation&#45;&gt;objc&#45;compat</title>
<path fill="none" stroke="black" d="M908.06,-146.01C911.24,-145.26 914.41,-144.58 917.5,-144 1095.39,-110.52 1147.38,-139.8 1329.82,-107.9"/>
<polygon fill="black" stroke="black" points="1330.51,-111.33 1339.74,-106.13 1329.28,-104.44 1330.51,-111.33"/>
</g>
<!-- MulleObjCCalendarFoundation -->
<g id="node13" class="node">
<title>MulleObjCCalendarFoundation</title>
<g id="a_node13"><a xlink:href="https://github.com/MulleFoundation/MulleObjCCalendarFoundation" xlink:title="MulleObjCCalendarFoundation">
<polygon fill="lightgrey" stroke="black" points="237,-36 0,-36 0,0 237,0 237,-36"/>
<text text-anchor="middle" x="118.5" y="-14.3" font-family="Times,serif" font-size="14.00">MulleObjCCalendarFoundation</text>
</a>
</g>
</g>
<!-- MulleFoundation&#45;&gt;MulleObjCCalendarFoundation -->
<g id="edge10" class="edge">
<title>MulleFoundation&#45;&gt;MulleObjCCalendarFoundation</title>
<path fill="none" stroke="black" d="M314.47,-71.97C277.34,-61.93 230.2,-49.19 191.47,-38.72"/>
<polygon fill="black" stroke="black" points="192.38,-35.34 181.81,-36.11 190.55,-42.1 192.38,-35.34"/>
</g>
<!-- MulleObjCDecimalFoundation -->
<g id="node14" class="node">
<title>MulleObjCDecimalFoundation</title>
<g id="a_node14"><a xlink:href="https://github.com/MulleFoundation/MulleObjCDecimalFoundation" xlink:title="MulleObjCDecimalFoundation">
<polygon fill="lightgrey" stroke="black" points="485.5,-36 255.5,-36 255.5,0 485.5,0 485.5,-36"/>
<text text-anchor="middle" x="370.5" y="-14.3" font-family="Times,serif" font-size="14.00">MulleObjCDecimalFoundation</text>
</a>
</g>
</g>
<!-- MulleFoundation&#45;&gt;MulleObjCDecimalFoundation -->
<g id="edge11" class="edge">
<title>MulleFoundation&#45;&gt;MulleObjCDecimalFoundation</title>
<path fill="none" stroke="black" d="M375.77,-71.7C375,-63.98 374.07,-54.71 373.21,-46.11"/>
<polygon fill="black" stroke="black" points="376.69,-45.71 372.21,-36.1 369.72,-46.4 376.69,-45.71"/>
</g>
<!-- MulleObjCOSFoundation -->
<g id="node15" class="node">
<title>MulleObjCOSFoundation</title>
<g id="a_node15"><a xlink:href="https://github.com/MulleFoundation/MulleObjCOSFoundation" xlink:title="MulleObjCOSFoundation">
<polygon fill="lightgrey" stroke="black" points="697.5,-36 503.5,-36 503.5,0 697.5,0 697.5,-36"/>
<text text-anchor="middle" x="600.5" y="-14.3" font-family="Times,serif" font-size="14.00">MulleObjCOSFoundation</text>
</a>
</g>
</g>
<!-- MulleFoundation&#45;&gt;MulleObjCOSFoundation -->
<g id="edge12" class="edge">
<title>MulleFoundation&#45;&gt;MulleObjCOSFoundation</title>
<path fill="none" stroke="black" d="M431.77,-71.97C463.33,-62.06 503.29,-49.51 536.4,-39.12"/>
<polygon fill="black" stroke="black" points="537.5,-42.45 545.99,-36.11 535.4,-35.77 537.5,-42.45"/>
</g>
<!-- MulleObjCExpatFoundation&#45;&gt;expat -->
<g id="edge13" class="edge">
<title>MulleObjCExpatFoundation&#45;&gt;expat</title>
<path fill="none" stroke="black" d="M743.5,-71.7C743.5,-63.98 743.5,-54.71 743.5,-46.11"/>
<polygon fill="black" stroke="black" points="747,-46.1 743.5,-36.1 740,-46.1 747,-46.1"/>
</g>
<!-- MulleBase64 -->
<g id="node12" class="node">
<title>MulleBase64</title>
<g id="a_node12"><a xlink:href="https://github.com/MulleWeb/MulleBase64" xlink:title="MulleBase64">
<polygon fill="lightgrey" stroke="black" points="899.5,-36 789.5,-36 789.5,0 899.5,0 899.5,-36"/>
<text text-anchor="middle" x="844.5" y="-14.3" font-family="Times,serif" font-size="14.00">MulleBase64</text>
</a>
</g>
</g>
<!-- MulleObjCExpatFoundation&#45;&gt;MulleBase64 -->
<g id="edge14" class="edge">
<title>MulleObjCExpatFoundation&#45;&gt;MulleBase64</title>
<path fill="none" stroke="black" d="M768.21,-71.88C781.17,-62.89 797.23,-51.76 811.27,-42.03"/>
<polygon fill="black" stroke="black" points="813.47,-44.76 819.7,-36.19 809.48,-39.01 813.47,-44.76"/>
</g>
<!-- MulleObjCInetFoundation -->
<g id="node16" class="node">
<title>MulleObjCInetFoundation</title>
<g id="a_node16"><a xlink:href="https://github.com/MulleWeb/MulleObjCInetFoundation" xlink:title="MulleObjCInetFoundation">
<polygon fill="lightgrey" stroke="black" points="1311,-36 1110,-36 1110,0 1311,0 1311,-36"/>
<text text-anchor="middle" x="1210.5" y="-14.3" font-family="Times,serif" font-size="14.00">MulleObjCInetFoundation</text>
</a>
</g>
</g>
<!-- MulleObjCInetOSFoundation&#45;&gt;MulleObjCInetFoundation -->
<g id="edge15" class="edge">
<title>MulleObjCInetOSFoundation&#45;&gt;MulleObjCInetFoundation</title>
<path fill="none" stroke="black" d="M1210.5,-71.7C1210.5,-63.98 1210.5,-54.71 1210.5,-46.11"/>
<polygon fill="black" stroke="black" points="1214,-46.1 1210.5,-36.1 1207,-46.1 1214,-46.1"/>
</g>
</g>
</svg>
