<?xml version="1.0" encoding="UTF-8" standalone="no"?>
<!DOCTYPE svg PUBLIC "-//W3C//DTD SVG 1.1//EN"
 "http://www.w3.org/Graphics/SVG/1.1/DTD/svg11.dtd">
<!-- Generated by graphviz version 2.43.0 (0)
 -->
<!-- Title: sourcetree Pages: 1 -->
<svg width="2652pt" height="260pt"
 viewBox="0.00 0.00 2651.50 260.00" xmlns="http://www.w3.org/2000/svg" xmlns:xlink="http://www.w3.org/1999/xlink">
<g id="graph0" class="graph" transform="scale(1 1) rotate(0) translate(4 256)">
<title>sourcetree</title>
<polygon fill="white" stroke="transparent" points="-4,4 -4,-256 2647.5,-256 2647.5,4 -4,4"/>
<!-- Foundation&#45;startup -->
<g id="node1" class="node">
<title>Foundation&#45;startup</title>
<polygon fill="yellow" stroke="black" points="2402.5,-252 2248.5,-252 2248.5,-216 2402.5,-216 2402.5,-252"/>
<text text-anchor="middle" x="2325.5" y="-230.3" font-family="Times,serif" font-size="14.00">Foundation&#45;startup</text>
</g>
<!-- Foundation -->
<g id="node2" class="node">
<title>Foundation</title>
<polygon fill="lightgrey" stroke="black" points="2108,-180 2011,-180 2011,-144 2108,-144 2108,-180"/>
<text text-anchor="middle" x="2059.5" y="-158.3" font-family="Times,serif" font-size="14.00">Foundation</text>
</g>
<!-- Foundation&#45;startup&#45;&gt;Foundation -->
<g id="edge7" class="edge">
<title>Foundation&#45;startup&#45;&gt;Foundation</title>
<path fill="none" stroke="black" d="M2260.77,-215.97C2217.2,-204.5 2160.23,-189.51 2118.03,-178.4"/>
<polygon fill="black" stroke="black" points="2118.74,-174.97 2108.17,-175.81 2116.95,-181.74 2118.74,-174.97"/>
</g>
<!-- mulle&#45;atexit -->
<g id="node9" class="node">
<title>mulle&#45;atexit</title>
<polygon fill="lightgrey" stroke="black" points="2376.5,-180 2274.5,-180 2274.5,-144 2376.5,-144 2376.5,-180"/>
<text text-anchor="middle" x="2325.5" y="-158.3" font-family="Times,serif" font-size="14.00">mulle&#45;atexit</text>
</g>
<!-- Foundation&#45;startup&#45;&gt;mulle&#45;atexit -->
<g id="edge8" class="edge">
<title>Foundation&#45;startup&#45;&gt;mulle&#45;atexit</title>
<path fill="none" stroke="black" d="M2325.5,-215.7C2325.5,-207.98 2325.5,-198.71 2325.5,-190.11"/>
<polygon fill="black" stroke="black" points="2329,-190.1 2325.5,-180.1 2322,-190.1 2329,-190.1"/>
</g>
<!-- mulle&#45;atinit -->
<g id="node10" class="node">
<title>mulle&#45;atinit</title>
<polygon fill="lightgrey" stroke="black" points="2568,-180 2469,-180 2469,-144 2568,-144 2568,-180"/>
<text text-anchor="middle" x="2518.5" y="-158.3" font-family="Times,serif" font-size="14.00">mulle&#45;atinit</text>
</g>
<!-- Foundation&#45;startup&#45;&gt;mulle&#45;atinit -->
<g id="edge9" class="edge">
<title>Foundation&#45;startup&#45;&gt;mulle&#45;atinit</title>
<path fill="none" stroke="black" d="M2372.71,-215.88C2399.57,-206.14 2433.38,-193.87 2461.68,-183.61"/>
<polygon fill="black" stroke="black" points="2463.23,-186.77 2471.44,-180.07 2460.85,-180.19 2463.23,-186.77"/>
</g>
<!-- MulleFoundation -->
<g id="node3" class="node">
<title>MulleFoundation</title>
<polygon fill="lightgrey" stroke="black" points="1038,-108 901,-108 901,-72 1038,-72 1038,-108"/>
<text text-anchor="middle" x="969.5" y="-86.3" font-family="Times,serif" font-size="14.00">MulleFoundation</text>
</g>
<!-- Foundation&#45;&gt;MulleFoundation -->
<g id="edge1" class="edge">
<title>Foundation&#45;&gt;MulleFoundation</title>
<path fill="none" stroke="black" d="M2010.9,-157.88C1839.27,-146.86 1260.51,-109.69 1048.33,-96.06"/>
<polygon fill="black" stroke="black" points="1048.4,-92.56 1038.2,-95.41 1047.96,-99.55 1048.4,-92.56"/>
</g>
<!-- mulle&#45;objc&#45;compat -->
<g id="node4" class="node">
<title>mulle&#45;objc&#45;compat</title>
<polygon fill="lightgrey" stroke="black" points="1702,-108 1555,-108 1555,-72 1702,-72 1702,-108"/>
<text text-anchor="middle" x="1628.5" y="-86.3" font-family="Times,serif" font-size="14.00">mulle&#45;objc&#45;compat</text>
</g>
<!-- Foundation&#45;&gt;mulle&#45;objc&#45;compat -->
<g id="edge2" class="edge">
<title>Foundation&#45;&gt;mulle&#45;objc&#45;compat</title>
<path fill="none" stroke="black" d="M2010.96,-154.4C1945.49,-145.33 1825.06,-128.02 1712.09,-108.06"/>
<polygon fill="black" stroke="black" points="1712.69,-104.61 1702.23,-106.3 1711.46,-111.5 1712.69,-104.61"/>
</g>
<!-- MulleObjCExpatFoundation -->
<g id="node5" class="node">
<title>MulleObjCExpatFoundation</title>
<polygon fill="lightgrey" stroke="black" points="1935,-108 1720,-108 1720,-72 1935,-72 1935,-108"/>
<text text-anchor="middle" x="1827.5" y="-86.3" font-family="Times,serif" font-size="14.00">MulleObjCExpatFoundation</text>
</g>
<!-- Foundation&#45;&gt;MulleObjCExpatFoundation -->
<g id="edge3" class="edge">
<title>Foundation&#45;&gt;MulleObjCExpatFoundation</title>
<path fill="none" stroke="black" d="M2010.87,-146.33C1976.96,-136.09 1931.3,-122.32 1894.02,-111.07"/>
<polygon fill="black" stroke="black" points="1894.83,-107.66 1884.25,-108.12 1892.81,-114.36 1894.83,-107.66"/>
</g>
<!-- MulleObjCHTTPFoundation -->
<g id="node6" class="node">
<title>MulleObjCHTTPFoundation</title>
<polygon fill="lightgrey" stroke="black" points="2166,-108 1953,-108 1953,-72 2166,-72 2166,-108"/>
<text text-anchor="middle" x="2059.5" y="-86.3" font-family="Times,serif" font-size="14.00">MulleObjCHTTPFoundation</text>
</g>
<!-- Foundation&#45;&gt;MulleObjCHTTPFoundation -->
<g id="edge4" class="edge">
<title>Foundation&#45;&gt;MulleObjCHTTPFoundation</title>
<path fill="none" stroke="black" d="M2059.5,-143.7C2059.5,-135.98 2059.5,-126.71 2059.5,-118.11"/>
<polygon fill="black" stroke="black" points="2063,-118.1 2059.5,-108.1 2056,-118.1 2063,-118.1"/>
</g>
<!-- MulleObjCInetOSFoundation -->
<g id="node7" class="node">
<title>MulleObjCInetOSFoundation</title>
<polygon fill="lightgrey" stroke="black" points="2405.5,-108 2183.5,-108 2183.5,-72 2405.5,-72 2405.5,-108"/>
<text text-anchor="middle" x="2294.5" y="-86.3" font-family="Times,serif" font-size="14.00">MulleObjCInetOSFoundation</text>
</g>
<!-- Foundation&#45;&gt;MulleObjCInetOSFoundation -->
<g id="edge5" class="edge">
<title>Foundation&#45;&gt;MulleObjCInetOSFoundation</title>
<path fill="none" stroke="black" d="M2108.19,-146.5C2142.62,-136.24 2189.23,-122.36 2227.21,-111.04"/>
<polygon fill="black" stroke="black" points="2228.59,-114.29 2237.17,-108.08 2226.59,-107.58 2228.59,-114.29"/>
</g>
<!-- objc&#45;compat -->
<g id="node8" class="node">
<title>objc&#45;compat</title>
<polygon fill="lightgrey" stroke="black" points="2527,-108 2424,-108 2424,-72 2527,-72 2527,-108"/>
<text text-anchor="middle" x="2475.5" y="-86.3" font-family="Times,serif" font-size="14.00">objc&#45;compat</text>
</g>
<!-- Foundation&#45;&gt;objc&#45;compat -->
<g id="edge6" class="edge">
<title>Foundation&#45;&gt;objc&#45;compat</title>
<path fill="none" stroke="black" d="M2108.07,-155.68C2174.82,-147.94 2298.74,-132.05 2413.67,-108.03"/>
<polygon fill="black" stroke="black" points="2414.64,-111.4 2423.69,-105.91 2413.19,-104.55 2414.64,-111.4"/>
</g>
<!-- MulleObjCArchiverFoundation -->
<g id="node13" class="node">
<title>MulleObjCArchiverFoundation</title>
<polygon fill="lightgrey" stroke="black" points="233,-36 0,-36 0,0 233,0 233,-36"/>
<text text-anchor="middle" x="116.5" y="-14.3" font-family="Times,serif" font-size="14.00">MulleObjCArchiverFoundation</text>
</g>
<!-- MulleFoundation&#45;&gt;MulleObjCArchiverFoundation -->
<g id="edge12" class="edge">
<title>MulleFoundation&#45;&gt;MulleObjCArchiverFoundation</title>
<path fill="none" stroke="black" d="M900.87,-85.44C773.39,-78.51 491.19,-61.69 243.52,-36.18"/>
<polygon fill="black" stroke="black" points="243.55,-32.66 233.24,-35.11 242.83,-39.62 243.55,-32.66"/>
</g>
<!-- MulleObjCCalendarFoundation -->
<g id="node14" class="node">
<title>MulleObjCCalendarFoundation</title>
<polygon fill="lightgrey" stroke="black" points="488,-36 251,-36 251,0 488,0 488,-36"/>
<text text-anchor="middle" x="369.5" y="-14.3" font-family="Times,serif" font-size="14.00">MulleObjCCalendarFoundation</text>
</g>
<!-- MulleFoundation&#45;&gt;MulleObjCCalendarFoundation -->
<g id="edge13" class="edge">
<title>MulleFoundation&#45;&gt;MulleObjCCalendarFoundation</title>
<path fill="none" stroke="black" d="M900.66,-81.71C810.77,-72.09 648.24,-54.37 498.35,-36.09"/>
<polygon fill="black" stroke="black" points="498.39,-32.57 488.04,-34.83 497.54,-39.52 498.39,-32.57"/>
</g>
<!-- MulleObjCDecimalFoundation -->
<g id="node15" class="node">
<title>MulleObjCDecimalFoundation</title>
<polygon fill="lightgrey" stroke="black" points="736.5,-36 506.5,-36 506.5,0 736.5,0 736.5,-36"/>
<text text-anchor="middle" x="621.5" y="-14.3" font-family="Times,serif" font-size="14.00">MulleObjCDecimalFoundation</text>
</g>
<!-- MulleFoundation&#45;&gt;MulleObjCDecimalFoundation -->
<g id="edge14" class="edge">
<title>MulleFoundation&#45;&gt;MulleObjCDecimalFoundation</title>
<path fill="none" stroke="black" d="M900.75,-75.17C847.94,-64.55 774.42,-49.76 716.08,-38.02"/>
<polygon fill="black" stroke="black" points="716.6,-34.56 706.11,-36.02 715.22,-41.42 716.6,-34.56"/>
</g>
<!-- MulleObjCKVCFoundation -->
<g id="node16" class="node">
<title>MulleObjCKVCFoundation</title>
<polygon fill="lightgrey" stroke="black" points="958,-36 755,-36 755,0 958,0 958,-36"/>
<text text-anchor="middle" x="856.5" y="-14.3" font-family="Times,serif" font-size="14.00">MulleObjCKVCFoundation</text>
</g>
<!-- MulleFoundation&#45;&gt;MulleObjCKVCFoundation -->
<g id="edge15" class="edge">
<title>MulleFoundation&#45;&gt;MulleObjCKVCFoundation</title>
<path fill="none" stroke="black" d="M941.86,-71.88C927.08,-62.72 908.71,-51.34 892.8,-41.48"/>
<polygon fill="black" stroke="black" points="894.59,-38.48 884.25,-36.19 890.91,-44.43 894.59,-38.48"/>
</g>
<!-- MulleObjCMathFoundation -->
<g id="node17" class="node">
<title>MulleObjCMathFoundation</title>
<polygon fill="lightgrey" stroke="black" points="1186.5,-36 976.5,-36 976.5,0 1186.5,0 1186.5,-36"/>
<text text-anchor="middle" x="1081.5" y="-14.3" font-family="Times,serif" font-size="14.00">MulleObjCMathFoundation</text>
</g>
<!-- MulleFoundation&#45;&gt;MulleObjCMathFoundation -->
<g id="edge16" class="edge">
<title>MulleFoundation&#45;&gt;MulleObjCMathFoundation</title>
<path fill="none" stroke="black" d="M996.9,-71.88C1011.41,-62.81 1029.42,-51.55 1045.09,-41.76"/>
<polygon fill="black" stroke="black" points="1047.37,-44.46 1054,-36.19 1043.66,-38.52 1047.37,-44.46"/>
</g>
<!-- MulleObjCOSFoundation -->
<g id="node18" class="node">
<title>MulleObjCOSFoundation</title>
<polygon fill="lightgrey" stroke="black" points="1398.5,-36 1204.5,-36 1204.5,0 1398.5,0 1398.5,-36"/>
<text text-anchor="middle" x="1301.5" y="-14.3" font-family="Times,serif" font-size="14.00">MulleObjCOSFoundation</text>
</g>
<!-- MulleFoundation&#45;&gt;MulleObjCOSFoundation -->
<g id="edge17" class="edge">
<title>MulleFoundation&#45;&gt;MulleObjCOSFoundation</title>
<path fill="none" stroke="black" d="M1038.29,-74.5C1088.27,-63.96 1156.39,-49.6 1210.81,-38.12"/>
<polygon fill="black" stroke="black" points="1211.74,-41.5 1220.81,-36.01 1210.3,-34.65 1211.74,-41.5"/>
</g>
<!-- MulleObjCUnicodeFoundation -->
<g id="node19" class="node">
<title>MulleObjCUnicodeFoundation</title>
<polygon fill="lightgrey" stroke="black" points="1647,-36 1416,-36 1416,0 1647,0 1647,-36"/>
<text text-anchor="middle" x="1531.5" y="-14.3" font-family="Times,serif" font-size="14.00">MulleObjCUnicodeFoundation</text>
</g>
<!-- MulleFoundation&#45;&gt;MulleObjCUnicodeFoundation -->
<g id="edge18" class="edge">
<title>MulleFoundation&#45;&gt;MulleObjCUnicodeFoundation</title>
<path fill="none" stroke="black" d="M1038.2,-81.03C1122.37,-71.18 1269.62,-53.72 1405.8,-36.21"/>
<polygon fill="black" stroke="black" points="1406.53,-39.64 1416,-34.9 1405.63,-32.7 1406.53,-39.64"/>
</g>
<!-- craftinfo/expat -->
<g id="node20" class="node">
<title>craftinfo/expat</title>
<polygon fill="lightgrey" stroke="black" points="1787.5,-36 1665.5,-36 1665.5,0 1787.5,0 1787.5,-36"/>
<text text-anchor="middle" x="1726.5" y="-14.3" font-family="Times,serif" font-size="14.00">craftinfo/expat</text>
</g>
<!-- MulleObjCExpatFoundation&#45;&gt;craftinfo/expat -->
<g id="edge19" class="edge">
<title>MulleObjCExpatFoundation&#45;&gt;craftinfo/expat</title>
<path fill="none" stroke="black" d="M1802.79,-71.88C1789.83,-62.89 1773.77,-51.76 1759.73,-42.03"/>
<polygon fill="black" stroke="black" points="1761.52,-39.01 1751.3,-36.19 1757.53,-44.76 1761.52,-39.01"/>
</g>
<!-- expat -->
<g id="node21" class="node">
<title>expat</title>
<polygon fill="lightgrey" stroke="black" points="1861.5,-36 1805.5,-36 1805.5,0 1861.5,0 1861.5,-36"/>
<text text-anchor="middle" x="1833.5" y="-14.3" font-family="Times,serif" font-size="14.00">expat</text>
</g>
<!-- MulleObjCExpatFoundation&#45;&gt;expat -->
<g id="edge20" class="edge">
<title>MulleObjCExpatFoundation&#45;&gt;expat</title>
<path fill="none" stroke="black" d="M1828.98,-71.7C1829.64,-63.98 1830.44,-54.71 1831.18,-46.11"/>
<polygon fill="black" stroke="black" points="1834.67,-46.37 1832.03,-36.1 1827.69,-45.77 1834.67,-46.37"/>
</g>
<!-- MulleBase64 -->
<g id="node22" class="node">
<title>MulleBase64</title>
<polygon fill="lightgrey" stroke="black" points="1989.5,-36 1879.5,-36 1879.5,0 1989.5,0 1989.5,-36"/>
<text text-anchor="middle" x="1934.5" y="-14.3" font-family="Times,serif" font-size="14.00">MulleBase64</text>
</g>
<!-- MulleObjCExpatFoundation&#45;&gt;MulleBase64 -->
<g id="edge21" class="edge">
<title>MulleObjCExpatFoundation&#45;&gt;MulleBase64</title>
<path fill="none" stroke="black" d="M1853.68,-71.88C1867.54,-62.81 1884.74,-51.55 1899.71,-41.76"/>
<polygon fill="black" stroke="black" points="1901.77,-44.59 1908.22,-36.19 1897.94,-38.74 1901.77,-44.59"/>
</g>
<!-- mulle&#45;http -->
<g id="node23" class="node">
<title>mulle&#45;http</title>
<polygon fill="lightgrey" stroke="black" points="2105,-36 2014,-36 2014,0 2105,0 2105,-36"/>
<text text-anchor="middle" x="2059.5" y="-14.3" font-family="Times,serif" font-size="14.00">mulle&#45;http</text>
</g>
<!-- MulleObjCHTTPFoundation&#45;&gt;mulle&#45;http -->
<g id="edge22" class="edge">
<title>MulleObjCHTTPFoundation&#45;&gt;mulle&#45;http</title>
<path fill="none" stroke="black" d="M2059.5,-71.7C2059.5,-63.98 2059.5,-54.71 2059.5,-46.11"/>
<polygon fill="black" stroke="black" points="2063,-46.1 2059.5,-36.1 2056,-46.1 2063,-46.1"/>
</g>
<!-- MulleObjCInetFoundation -->
<g id="node24" class="node">
<title>MulleObjCInetFoundation</title>
<polygon fill="lightgrey" stroke="black" points="2395,-36 2194,-36 2194,0 2395,0 2395,-36"/>
<text text-anchor="middle" x="2294.5" y="-14.3" font-family="Times,serif" font-size="14.00">MulleObjCInetFoundation</text>
</g>
<!-- MulleObjCInetOSFoundation&#45;&gt;MulleObjCInetFoundation -->
<g id="edge23" class="edge">
<title>MulleObjCInetOSFoundation&#45;&gt;MulleObjCInetFoundation</title>
<path fill="none" stroke="black" d="M2294.5,-71.7C2294.5,-63.98 2294.5,-54.71 2294.5,-46.11"/>
<polygon fill="black" stroke="black" points="2298,-46.1 2294.5,-36.1 2291,-46.1 2298,-46.1"/>
</g>
<!-- mulle&#45;dlfcn -->
<g id="node11" class="node">
<title>mulle&#45;dlfcn</title>
<polygon fill="lightgrey" stroke="black" points="2641.5,-108 2545.5,-108 2545.5,-72 2641.5,-72 2641.5,-108"/>
<text text-anchor="middle" x="2593.5" y="-86.3" font-family="Times,serif" font-size="14.00">mulle&#45;dlfcn</text>
</g>
<!-- mulle&#45;atinit&#45;&gt;mulle&#45;dlfcn -->
<g id="edge10" class="edge">
<title>mulle&#45;atinit&#45;&gt;mulle&#45;dlfcn</title>
<path fill="none" stroke="black" d="M2537.04,-143.7C2546.3,-135.05 2557.66,-124.45 2567.76,-115.03"/>
<polygon fill="black" stroke="black" points="2570.25,-117.49 2575.17,-108.1 2565.48,-112.37 2570.25,-117.49"/>
</g>
<!-- dlfcn&#45;win32 -->
<g id="node12" class="node">
<title>dlfcn&#45;win32</title>
<polygon fill="lightgrey" stroke="black" points="2643.5,-36 2543.5,-36 2543.5,0 2643.5,0 2643.5,-36"/>
<text text-anchor="middle" x="2593.5" y="-14.3" font-family="Times,serif" font-size="14.00">dlfcn&#45;win32</text>
</g>
<!-- mulle&#45;dlfcn&#45;&gt;dlfcn&#45;win32 -->
<g id="edge11" class="edge">
<title>mulle&#45;dlfcn&#45;&gt;dlfcn&#45;win32</title>
<path fill="none" stroke="black" d="M2593.5,-71.7C2593.5,-63.98 2593.5,-54.71 2593.5,-46.11"/>
<polygon fill="black" stroke="black" points="2597,-46.1 2593.5,-36.1 2590,-46.1 2597,-46.1"/>
</g>
</g>
</svg>
