<?xml version="1.0" encoding="UTF-8" standalone="no"?>
<!DOCTYPE svg PUBLIC "-//W3C//DTD SVG 1.1//EN"
 "http://www.w3.org/Graphics/SVG/1.1/DTD/svg11.dtd">
<!-- Generated by graphviz version 2.43.0 (0)
 -->
<!-- Title: sourcetree Pages: 1 -->
<svg width="343pt" height="116pt"
 viewBox="0.00 0.00 343.00 116.00" xmlns="http://www.w3.org/2000/svg" xmlns:xlink="http://www.w3.org/1999/xlink">
<g id="graph0" class="graph" transform="scale(1 1) rotate(0) translate(4 112)">
<title>sourcetree</title>
<polygon fill="white" stroke="transparent" points="-4,4 -4,-112 339,-112 339,4 -4,4"/>
<!-- Foundation&#45;startup -->
<g id="node1" class="node">
<title>Foundation&#45;startup</title>
<polygon fill="yellow" stroke="black" points="243.5,-108 89.5,-108 89.5,-72 243.5,-72 243.5,-108"/>
<text text-anchor="middle" x="166.5" y="-86.3" font-family="Times,serif" font-size="14.00">Foundation&#45;startup</text>
</g>
<!-- Foundation -->
<g id="node2" class="node">
<title>Foundation</title>
<g id="a_node2"><a xlink:href="https://github.com/MulleFoundation/Foundation" xlink:title="Foundation">
<polygon fill="lightgrey" stroke="black" points="97,-36 0,-36 0,0 97,0 97,-36"/>
<text text-anchor="middle" x="48.5" y="-14.3" font-family="Times,serif" font-size="14.00">Foundation</text>
</a>
</g>
</g>
<!-- Foundation&#45;startup&#45;&gt;Foundation -->
<g id="edge1" class="edge">
<title>Foundation&#45;startup&#45;&gt;Foundation</title>
<path fill="none" stroke="black" d="M137.63,-71.88C122.21,-62.72 103.02,-51.34 86.4,-41.48"/>
<polygon fill="black" stroke="black" points="87.86,-38.28 77.48,-36.19 84.29,-44.3 87.86,-38.28"/>
</g>
<!-- mulle&#45;atexit -->
<g id="node3" class="node">
<title>mulle&#45;atexit</title>
<g id="a_node3"><a xlink:href="https://github.com/mulle-core/mulle-atexit" xlink:title="mulle&#45;atexit">
<polygon fill="lightgrey" stroke="black" points="217.5,-36 115.5,-36 115.5,0 217.5,0 217.5,-36"/>
<text text-anchor="middle" x="166.5" y="-14.3" font-family="Times,serif" font-size="14.00">mulle&#45;atexit</text>
</a>
</g>
</g>
<!-- Foundation&#45;startup&#45;&gt;mulle&#45;atexit -->
<g id="edge2" class="edge">
<title>Foundation&#45;startup&#45;&gt;mulle&#45;atexit</title>
<path fill="none" stroke="black" d="M166.5,-71.7C166.5,-63.98 166.5,-54.71 166.5,-46.11"/>
<polygon fill="black" stroke="black" points="170,-46.1 166.5,-36.1 163,-46.1 170,-46.1"/>
</g>
<!-- mulle&#45;atinit -->
<g id="node4" class="node">
<title>mulle&#45;atinit</title>
<g id="a_node4"><a xlink:href="https://github.com/mulle-core/mulle-atinit" xlink:title="mulle&#45;atinit">
<polygon fill="lightgrey" stroke="black" points="335,-36 236,-36 236,0 335,0 335,-36"/>
<text text-anchor="middle" x="285.5" y="-14.3" font-family="Times,serif" font-size="14.00">mulle&#45;atinit</text>
</a>
</g>
</g>
<!-- Foundation&#45;startup&#45;&gt;mulle&#45;atinit -->
<g id="edge3" class="edge">
<title>Foundation&#45;startup&#45;&gt;mulle&#45;atinit</title>
<path fill="none" stroke="black" d="M195.61,-71.88C211.17,-62.72 230.52,-51.34 247.28,-41.48"/>
<polygon fill="black" stroke="black" points="249.43,-44.28 256.28,-36.19 245.88,-38.24 249.43,-44.28"/>
</g>
</g>
</svg>
